PathFileType	4	(X/Y/Z)	D:\TRACE\spot_10-12-23\spot_body_baseline_4-v60.trc
DataRate	CameraRate	NumFrames	NumMarkers	Units	OrigDataRate	OrigDataStartFrame	OrigNumFrames
100.00	100.00	      28	9	mm	100.00	6126	      7000
Frame#	Time	front left toe			Front right toe			aft left toe			aft right toe			Arm			FL body			FR body			AL Body			AR Body			
		X1	Y1	Z1	X2	Y2	Z2	X3	Y3	Z3	X4	Y4	Z4	X5	Y5	Z5	X6	Y6	Z6	X7	Y7	Z7	X8	Y8	Z8	X9	Y9	Z9	

6126	61.250	-272.96622	26.93738	140.60645	309.90631	22.55737	87.21782	-217.45576	28.24982	676.66766	357.22845	18.41074	619.89978	36.22249	806.04517	-62.72837	-41.13789	541.78729	-35.02647	110.41278	550.14404	-51.65926	49.26700	550.90735	843.59979	200.19489	553.35602	830.43530	
6127	61.260	-272.84946	26.87711	140.65109	309.85690	22.60117	87.14405	-217.51419	28.19872	676.69574	357.25259	18.44250	619.88538	35.64356	805.94641	-62.53516	-41.64652	541.77222	-34.89307	110.28175	549.92706	-51.40693	49.18821	551.18689	843.91443	199.78044	553.58691	831.08734	
6128	61.270	-272.94174	26.87125	140.68086	309.81107	22.62462	87.11385	-217.55147	28.22366	676.68530	357.26627	18.13390	619.64972	34.72177	805.88336	-62.38261	-42.07110	541.65338	-34.75448	109.99683	549.82611	-51.16017	48.91691	551.21320	844.12738	198.81795	553.62115	830.85675	
6129	61.280	-273.03867	26.91366	140.66193	309.87552	22.76976	87.16133	-217.62051	28.25922	676.65674	357.24954	18.27743	619.75110	34.40879	805.75427	-62.20284	-42.57320	541.54279	-34.57565	109.85722	549.80450	-50.87254	48.30022	550.97083	844.26428	198.26346	554.00128	831.65344	
6130	61.290	-273.06073	26.96365	140.64734	309.86444	22.74892	87.19424	-217.64902	28.25270	676.66968	357.21854	18.77849	619.97913	33.93297	805.75043	-62.06933	-42.90286	541.29889	-34.42650	109.41402	549.80493	-50.17777	47.73099	551.12152	844.54297	198.77025	554.60400	832.93896	
6131	61.300	-273.13516	26.90404	140.69684	309.72269	22.84598	86.91389	-217.61235	28.21860	676.68213	357.18774	18.73443	619.92419	33.22827	805.66992	-61.96779	-43.32446	541.10419	-34.25054	108.63046	549.84497	-50.10372	47.35602	551.12421	844.84198	198.11601	554.78009	832.92896	
6132	61.310	-273.16779	26.85810	140.73438	309.72565	22.86314	86.94776	-217.59085	28.17052	676.71594	357.22531	18.45578	619.82611	32.47379	805.57996	-61.82501	-43.74274	540.99011	-33.97917	108.12652	549.66119	-50.26992	46.55356	551.45905	844.94659	197.37912	554.85803	833.03180	
6133	61.320	-273.20920	26.79848	140.74161	309.66586	22.93996	86.92183	-217.68610	28.14639	676.72571	357.10657	18.69234	619.86877	31.98861	805.54327	-61.64678	-44.19991	540.99408	-33.75398	107.82126	549.62946	-50.05388	45.91192	551.56543	845.14728	196.23090	554.58813	832.43958	
6134	61.330	-273.21460	26.83050	140.75111	309.62674	22.80094	86.83030	-217.76140	28.11395	676.71143	357.06094	18.73715	619.94598	31.47622	805.53113	-61.44501	-44.62516	541.00977	-33.57826	107.41099	549.76563	-49.96914	45.31949	551.67468	845.31403	195.48431	554.87378	832.77606	
6135	61.340	-273.17651	26.86964	140.71896	309.68289	22.79642	86.84638	-217.77197	28.12333	676.70050	357.05148	18.78480	619.96130	31.09626	805.57770	-61.31164	-45.09512	541.03119	-33.41507	106.73925	549.88953	-49.86847	44.94724	551.81226	845.49438	194.84082	554.98370	833.02338	
6136	61.350	-273.27313	26.89939	140.74434	309.69785	22.83491	86.91925	-217.83060	28.14585	676.72113	357.00070	18.85833	619.96301	30.53816	805.61249	-61.16853	-45.45306	541.05310	-33.26627	106.41627	549.90955	-49.29100	44.37134	551.95319	845.60663	194.22803	555.08057	833.21991	
6137	61.360	-273.32605	26.82126	140.77673	309.51282	22.89852	86.88343	-217.90698	28.08066	676.76373	357.02710	18.93165	619.98376	29.96449	805.57892	-60.97190	-46.04121	541.10956	-33.10738	105.99182	549.93176	-49.16151	43.75821	552.07788	845.82031	193.64758	554.86176	832.89807	
6138	61.370	-273.28580	26.70763	140.84297	309.45813	22.89433	86.84812	-217.91980	28.02042	676.78333	356.93280	18.91867	619.92670	29.60336	805.57367	-60.86246	-46.53259	541.14862	-32.86413	105.44352	549.96826	-49.27594	43.49242	551.84418	846.20422	193.14256	554.89813	833.03802	
6139	61.380	-273.32681	26.73705	140.78880	309.55609	23.03110	86.91527	-217.88133	28.04344	676.76642	356.96198	18.94448	619.89722	29.27528	805.68158	-60.72747	-47.07418	541.19348	-32.67049	104.87033	549.94293	-49.04577	43.34669	551.85693	846.28314	192.72169	554.87640	833.10486	
6140	61.390	-273.33719	26.71193	140.79237	309.51395	23.02537	86.86245	-217.89154	28.07187	676.77136	356.97141	19.00259	619.92834	29.11939	805.70203	-60.57931	-47.56859	541.25171	-32.56327	104.45239	549.88776	-48.83617	42.81768	552.11115	846.47546	192.31358	554.84149	833.19336	
6141	61.400	-273.38812	26.69510	140.86278	309.52036	23.13111	86.95993	-217.93288	28.06275	676.82599	356.94257	19.14084	619.94006	28.95265	805.73505	-60.37975	-48.14231	541.42804	-32.43058	103.94479	549.79230	-48.53585	42.39396	552.41516	846.55389	192.04640	554.81824	833.33936	
6142	61.410	-273.44211	26.62789	140.89670	309.42859	23.14708	86.92886	-218.04938	27.97905	676.90442	356.84085	19.14231	619.95001	28.77487	805.75098	-60.24583	-48.68240	541.50153	-32.18908	103.27561	549.73938	-48.09686	42.11169	552.45801	846.64917	191.62393	554.75317	833.54132	
6143	61.420	-273.42651	26.48234	140.99557	309.28998	23.19708	86.84624	-218.11214	27.86177	676.93726	356.84625	19.10628	619.92572	28.51987	805.81311	-60.11927	-49.39920	541.71130	-31.88525	102.74554	549.68298	-48.03554	41.58820	552.48743	846.82245	191.10893	554.61060	833.75293	
6144	61.430	-273.45636	26.45237	140.96715	309.26343	23.21567	86.89182	-218.14694	27.79520	676.92438	356.79669	19.07670	619.89020	28.26085	805.94666	-59.98693	-49.79868	541.82300	-31.67833	102.35932	549.62848	-47.93074	41.15799	552.54468	847.01929	190.91222	554.74371	834.48584	
6145	61.440	-273.45987	26.45426	140.95905	309.19531	23.28488	86.89223	-218.14105	27.82162	676.91382	356.77798	19.08237	619.90765	28.22089	806.02631	-59.84269	-50.20876	541.98279	-31.52345	101.79063	549.63733	-48.06922	40.61229	552.69916	847.22687	190.47224	554.72217	834.59277	
6146	61.450	-273.45172	26.48272	140.98209	309.18655	23.27232	86.85748	-218.13150	27.85343	676.87903	356.79260	19.18179	619.93274	28.00322	806.13098	-59.72437	-50.80712	542.21930	-31.38795	101.00957	549.69568	-47.96765	40.20946	552.84821	847.36340	190.15210	554.61169	834.65997	
6147	61.460	-273.45520	26.47463	141.01086	309.24194	23.30669	86.94301	-218.13496	27.84807	676.93439	356.73352	19.24997	619.92273	27.80665	806.14813	-59.59162	-51.42883	542.41644	-31.13681	100.57869	549.53845	-47.85744	39.44518	553.39539	847.68915	189.96107	554.48132	834.73645	
6148	61.470	-273.50479	26.41546	140.99985	309.08276	23.32556	86.88040	-218.28210	27.79561	676.97949	356.69363	19.31425	619.91290	27.66745	806.10333	-59.43793	-52.03871	542.54236	-30.99770	100.09930	549.29120	-47.55230	38.86183	553.49213	847.77783	189.58546	554.35590	834.79364	
6149	61.480	-273.55710	26.28374	141.03027	308.93124	23.52631	86.88824	-218.31424	27.66173	677.00793	356.61972	19.32989	619.85516	27.48303	806.11365	-59.27242	-52.63662	542.73688	-31.00555	99.47004	549.15881	-47.21581	38.44841	553.44177	847.85413	189.13429	554.21240	834.87500	
6150	61.490	-273.60477	26.20650	141.02126	308.93500	23.38476	86.80696	-218.30765	27.65561	677.02258	356.61780	19.41353	619.87048	27.30871	806.17493	-59.13280	-53.25025	542.89374	-31.01011	98.89723	549.07019	-47.21165	38.09172	553.53278	847.90430	188.76953	554.08740	834.96277	
6151	61.500	-273.63458	26.20568	141.01549	308.83105	23.63107	86.89025	-218.38690	27.59089	677.02258	356.58234	19.46747	619.93695	27.03711	806.18768	-59.04536	-53.87022	543.07568	-30.96058	98.55660	549.06360	-47.01601	37.38493	553.73114	848.05640	188.12920	553.99969	835.18848	
6152	61.510	-273.61456	26.20241	141.04979	308.82498	23.50654	86.84849	-218.42834	27.53227	677.06036	356.51282	19.49178	619.94586	26.95065	806.21381	-58.95407	-54.44519	543.22375	-30.81624	97.68955	549.19653	-47.13317	37.02605	553.74078	848.28290	187.84457	553.80597	835.35114	
6153	61.520	-273.63605	26.19227	141.07303	308.77588	23.56061	86.88487	-218.49612	27.49665	677.05957	356.44647	19.51747	619.99908	26.77684	806.20258	-58.88276	-54.91527	543.30804	-30.56620	97.26485	549.02332	-46.94198	36.50934	553.74084	848.41675	187.46265	553.72552	835.46710	
